# xmcd
#
# Track frame offsets:
# 150
# 21528
# 22000
# 43378
# 60027
# 77912
# 95064
# 108453
# 127825
# 144158
# 161095
# 174119
# 192319
# 212643
# 231414
# 249007
# 265707
# 281186
# 302429
# 318378
#
# Disc length: 4493 seconds
#
# Revision: 0
# Processed by: cddbd v1.4PL0 Copyright (c) Steve Scherf et al.
# Submitted via: Audion 2.5.0 (http://www.panic.com/audion/)
#
DISCID=11118b14
DTITLE=by rei.. - 댄스
DYEAR=1900
DGENRE=
TTITLE0=다시 - GOD
TTITLE1=^^;
TTITLE2=다시 - GOD
TTITLE3=니가 있어야 할 곳 - GOD
TTITLE4=미소천사 - 성시경
TTITLE5=Double - 김건모
TTITLE6=빗속의 여인 - 김건모
TTITLE7=난 사랑을 몰라 - GOD
TTITLE8=관찰 - GOD
TTITLE9=남자이니까 - 김종국
TTITLE10=후회 - 조성모
TTITLE11=다짐 - 조성모
TTITLE12=좋은 사람 - 토이
TTITLE13=밤이 깊었네 - 크라잉 넛
TTITLE14=아름다운 세상 - 유리상자
TTITLE15=비바 내사랑 - 이기찬
TTITLE16=니가 필요해 - GOD
TTITLE17=믿을진 모르겠지만 - 김진표
TTITLE18=내 곁에 - 김진표
TTITLE19=Swing baby - 박진영
EXTD=
EXTT0=
EXTT1=
EXTT2=
EXTT3=
EXTT4=
EXTT5=
EXTT6=
EXTT7=
EXTT8=
EXTT9=
EXTT10=
EXTT11=
EXTT12=
EXTT13=
EXTT14=
EXTT15=
EXTT16=
EXTT17=
EXTT18=
EXTT19=
PLAYORDER=
